# AST/ASF file generated using VICON BodyLanguage
# -----------------------------------------------
:version 1.10
:name VICON
:units
  mass 1.0
  length 0.45
  angle deg
:documentation
   .ast/.asf automatically generated from VICON data using
   VICON BodyBuilder and BodyLanguage model FoxedUp or BRILLIANT.MOD
:root
   order TX TY TZ RX RY RZ
   axis XYZ
   position 0 0 0  
   orientation 0 0 0 
:bonedata
  begin
     id 1 
     name lhipjoint
     direction 0.660183 -0.676772 0.325788 
     length 2.75133 
     axis 0 0 0  XYZ
  end
  begin
     id 2 
     name lfemur
     direction 0.34202 -0.939693 0  
     length 7.70317  
     axis 0 0 20  XYZ
    dof rx ry rz
    limits (-160.0 20.0)
           (-70.0 70.0)
           (-60.0 70.0)
  end
  begin
     id 3 
     name ltibia
     direction 0.342105 -0.939662 0   
     length 7.18701   
     axis 0 0 20   XYZ
    dof rx
    limits (-10.0 170.0)
  end
  begin
     id 4 
     name lfoot
     direction 0.14163 -0.389126 0.910232   
     length 2.41719   
     axis -90 7.62852e-016 20   XYZ
    dof rx rz
    limits (-45.0 90.0)
           (-70.0 20.0)
  end
  begin
     id 5 
     name ltoes
     direction 1.53533e-011 -4.21926e-011 1   
     length 1.18611   
     axis -90 7.62852e-016 20   XYZ
    dof rx
    limits (-90.0 20.0)
  end
  begin
     id 6 
     name rhipjoint
     direction -0.6658 -0.67229 0.323631   
     length 2.76968  
     axis 0 0 0  XYZ 
  end
  begin
     id 7 
     name rfemur
     direction -0.34202 -0.939693 0   
     length 7.92547   
     axis 0 0 -20   XYZ
    dof rx ry rz
    limits (-160.0 20.0)
           (-70.0 70.0)
           (-70.0 60.0)
  end
  begin
     id 8 
     name rtibia
     direction -0.342022 -0.939692 0   
     length 7.22641   
     axis 0 0 -20   XYZ
    dof rx
    limits (-10.0 170.0)
 end
 begin
     id 9 
     name rfoot
     direction -0.105675 -0.29034 0.951071   
     length 2.48149  
     axis -90 -7.62852e-016 -20   XYZ
    dof rx rz
    limits (-45.0 90.0)
           (-20.0 70.0)
  end
  begin
     id 10 
     name rtoes
     direction -1.5349e-011 -4.21859e-011 1   
     length 1.23343   
     axis -90 -7.62852e-016 -20   XYZ
    dof rx
    limits (-90.0 20.0)
  end
  begin
     id 11 
     name lowerback
     direction 0.0104173 0.993624 -0.112266   
     length 2.00527   
     axis 0 0 0   XYZ
    dof rx ry rz
    limits (-20.0 45.0)
           (-30.0 30.0)
           (-30.0 30.0)
  end
  begin
     id 12 
     name upperback
     direction 0.00733149 0.999856 -0.0152913   
     length 2.01385   
     axis 0 0 0   XYZ
    dof rx ry rz
    limits (-20.0 45.0)
           (-30.0 30.0)
           (-30.0 30.0)
  end
  begin
     id 13 
     name thorax
     direction 0.0026304 0.999318 0.036841   
     length 2.03734   
     axis 0 0 0   XYZ
    dof rx ry rz
    limits (-20.0 45.0)
           (-30.0 30.0)
           (-30.0 30.0)
  end
  begin
     id 14 
     name lowerneck
     direction 0.0293154 0.998757 0.0403082   
     length 1.65303   
     axis 0 0 0   XYZ
    dof rx ry rz
    limits (-20.0 45.0)
           (-30.0 30.0)
           (-30.0 30.0)
  end
  begin
     id 15 
     name upperneck
     direction -0.0376619 0.998184 -0.0470083   
     length 1.60926   
     axis 0 0 0   XYZ
    dof rx ry rz
    limits (-20.0 45.0)
           (-30.0 30.0)
           (-30.0 30.0)
  end
  begin
     id 16
     name head
     direction -0.0170133 0.999635 -0.0209778  
     length 1.73625  
     axis 0 0 0   XYZ
    dof rx ry rz
    limits (-20.0 45.0)
           (-30.0 30.0)
           (-30.0 30.0)
  end
  begin
     id 17 
     name lclavicle
     direction 0.919857 0.39181 -0.0186333  
     length 3.75313  
     axis 0 0 0   XYZ
    dof ry rz
    limits (-20.0 10.0)
           (0.0 20.0)
  end
  begin
     id 18 
     name lhumerus
     direction 1 -4.48988e-011 1.44029e-027   
     length 5.49313   
     axis 180 -30 -90   XYZ
    dof rx ry rz
    limits (-60.0 90.0)
           (-90.0 90.0)
           (-90.0 90.0)
  end
  begin
     id 19
     name lradius
     direction 1 -4.48924e-011 7.46281e-027   
     length 3.29037   
     axis 180 -30 -90   XYZ
    dof rx
    limits (-10.0 170.0)
  end
  begin
     id 20
     name lwrist
     direction 1 -4.48955e-011 2.19879e-026   
     length 1.64519   
     axis -1.34358e-014 90 90   XYZ
    dof ry
    limits (-180.0 0.0)
 end
  begin
     id 21 
     name lhand
     direction 1 -4.48978e-011 4.39747e-026   
     length 0.729656   
     axis -2.80598e-014 90 90   XYZ
    dof rx rz
    limits (-90.0 90.0)
           (-45.0 45.0)
  end
  begin
     id 22 
     name lfingers
     direction 1 -4.49071e-011 8.79411e-026   
     length 0.588268   
     axis -5.61193e-014 90 90   XYZ
    dof rx
    limits (0.0 90.0)
  end
  begin
     id 23
     name lthumb
     direction 0.707107 -6.34817e-011 0.707107   
     length 0.844638   
     axis -90 45 -9.86923e-015   XYZ
    dof rx rz
    limits (-45.0 45.0)
           (-45.0 45.0)
  end
  begin
     id 24 
     name rclavicle
     direction -0.919898 0.388279 0.0550233   
     length 3.7171  
     axis 0 0 0   XYZ 
    dof ry rz
    limits (-10.0 20.0)
           (-20.0 0.0)
  end
  begin
     id 25 
     name rhumerus
     direction -1 -4.48968e-011 9.98372e-028  
     length 5.23684   
     axis 180 30 90   XYZ
    dof rx ry rz
    limits (-90.0 60.0)
           (-90.0 90.0)
           (-90.0 90.0)
  end
  begin
     id 26 
     name rradius
     direction -1 -4.48956e-011 1.01023e-026   
     length 3.38251   
     axis 180 30 90   XYZ
    dof rx
    limits (-10.0 170.0)
  end
  begin
     id 27 
     name rwrist
     direction -1 -4.4892e-011 2.19886e-026   
     length 1.69126   
     axis -1.34358e-014 -90 -90   XYZ
    dof ry
    limits (-180.0 0.0)
  end
  begin
     id 28
     name rhand
     direction -1 -4.49024e-011 4.39727e-026   
     length 0.691454   
     axis -2.80598e-014 -90 -90   XYZ
    dof rx rz
    limits (-90.0 90.0)
           (-45.0 45.0)
  end
  begin
     id 29
     name rfingers
     direction -1 -4.49097e-011 8.79388e-026   
     length 0.557468   
     axis -5.61193e-014 -90 -90   XYZ
    dof rx
    limits (0.0 90.0)
  end
  begin
     id 30
     name rthumb
     direction -0.707107 -6.34938e-011 0.707107   
     length 0.800416   
     axis -90 -45 9.86923e-015   XYZ
    dof rx rz
    limits (-45.0 45.0)
           (-45.0 45.0)
  end
:hierarchy
  begin
    root lhipjoint rhipjoint lowerback
    lhipjoint lfemur
    lfemur ltibia
    ltibia lfoot
    lfoot ltoes
    rhipjoint rfemur
    rfemur rtibia
    rtibia rfoot
    rfoot rtoes
    lowerback upperback
    upperback thorax
    thorax lowerneck lclavicle rclavicle
    lowerneck upperneck
    upperneck head
    lclavicle lhumerus
    lhumerus lradius
    lradius lwrist
    lwrist lhand lthumb
    lhand lfingers
    rclavicle rhumerus
    rhumerus rradius
    rradius rwrist
    rwrist rhand rthumb
    rhand rfingers
  end

#!OML:ASF H:\BabyWalks\Project 1\Capture day 1\Session 1\baby.ASF
:FULLY-SPECIFIED
:DEGREES
239
root -29.2171 18.0497 -4.07619 -6.11637 75.2509 -19.4205
lowerback 17.6801 -2.08932 -4.71212
upperback 4.94267 -3.0961 3.90799
thorax -4.08108 -1.43327 7.50981
lowerneck 0.382971 4.02712 3.30572
upperneck 2.3815 5.53558 -7.11442
head 1.00228 2.74638 -2.78439
rclavicle -1.78906e-014 3.45885e-014
rhumerus -41.7935 14.2612 -81.0655
rradius 42.5188
rwrist 3.09061
rhand -7.13188 -14.7056
rfingers 7.12502
rthumb 18.744 -43.8225
lclavicle -1.78906e-014 3.45885e-014
lhumerus -40.5765 4.60712 77.0978
lradius 61.2483
lwrist 7.20413
lhand -4.544 12.0596
lfingers 7.12502
lthumb 21.2315 40.9168
rfemur -29.7713 2.44415 24.3278
rtibia 25.4968
rfoot -15.7993 -2.0949
rtoes -10.9601
lfemur -0.124468 3.83907 -18.0357
ltibia 18.7143
lfoot -18.5784 0.125249
ltoes -12.8121
240
root -29.0696 18.0426 -4.03708 -5.13573 75.6948 -18.3353
lowerback 17.6437 -2.1206 -4.72834
upperback 4.92226 -3.13671 3.9317
thorax -4.07451 -1.45276 7.55148
lowerneck 0.34562 3.91421 3.34277
upperneck 2.51104 5.39954 -7.33388
head 1.05129 2.67583 -2.86572
rclavicle -4.35338e-014 4.17448e-014
rhumerus -42.0781 14.2292 -81.0118
rradius 42.3861
rwrist 3.15606
rhand -6.93977 -14.7299
rfingers 7.12502
rthumb 18.9287 -43.8289
lclavicle -4.35338e-014 4.17448e-014
lhumerus -40.8711 4.62131 77.3453
lradius 61.3095
lwrist 7.2976
lhand -4.52305 12.0016
lfingers 7.12502
lthumb 21.2516 40.8566
rfemur -29.5938 2.61795 23.9844
rtibia 25.648
rfoot -15.5343 -2.37077
rtoes -10.6531
lfemur 0.46414 3.79804 -18.2502
ltibia 18.5195
lfoot -18.0665 -0.514498
ltoes -13.6688
241
root -28.9195 18.0318 -3.99723 -4.01374 76.1727 -17.0961
lowerback 17.6181 -2.15352 -4.73809
upperback 4.88724 -3.1794 3.95056
thorax -4.08975 -1.47211 7.58582
lowerneck 0.296478 3.79855 3.37447
upperneck 2.66672 5.26221 -7.55888
head 1.11043 2.60391 -2.94812
rclavicle -5.56597e-014 2.20651e-014
rhumerus -42.3902 14.1796 -80.9533
rradius 42.2566
rwrist 3.21384
rhand -6.76324 -14.7442
rfingers 7.12502
rthumb 19.0985 -43.8265
lclavicle -5.56597e-014 2.20651e-014
lhumerus -41.1934 4.62326 77.6032
lradius 61.3376
lwrist 7.36137
lhand -4.47639 11.9288
lfingers 7.12502
lthumb 21.2964 40.7787
rfemur -29.3515 2.77428 23.5927
rtibia 25.8504
rfoot -15.1633 -2.68492
rtoes -9.9623
lfemur 1.00685 3.79797 -18.4728
ltibia 18.4425
lfoot -17.5648 -1.22483
ltoes -14.5404
242
root -28.7671 18.0175 -3.95659 -2.71526 76.7038 -15.6756
lowerback 17.5686 -2.18922 -4.7395
upperback 4.85527 -3.2239 3.96275
thorax -4.08961 -1.49304 7.60657
lowerneck 0.227827 3.67368 3.4077
upperneck 2.8326 5.11394 -7.78862
head 1.17563 2.52587 -3.03283
rclavicle -3.58806e-014 3.12092e-014
rhumerus -42.7029 14.0813 -80.88
rradius 42.1306
rwrist 3.26316
rhand -6.60252 -14.7614
rfingers 7.12502
rthumb 19.2531 -43.8284
lclavicle -3.58806e-014 3.12092e-014
lhumerus -41.5017 4.5935 77.8743
lradius 61.3238
lwrist 7.40198
lhand -4.39518 11.8414
lfingers 7.12502
lthumb 21.3744 40.6825
rfemur -29.0544 2.89714 23.1538
rtibia 26.106
rfoot -14.6889 -3.09645
rtoes -8.76999
lfemur 1.48414 3.83962 -18.7006
ltibia 18.4942
lfoot -17.0658 -2.02671
ltoes -15.411
243
root -28.6125 17.9998 -3.9154 -1.22101 77.2784 -14.057
lowerback 17.5178 -2.22672 -4.72606
upperback 4.81131 -3.26886 3.96978
thorax -4.10293 -1.51344 7.61354
lowerneck 0.149476 3.54023 3.43172
upperneck 3.01474 4.9561 -8.01706
head 1.24663 2.44242 -3.11602
rclavicle -2.2413e-014 9.64106e-015
rhumerus -43.04 13.9452 -80.7975
rradius 42.0098
rwrist 3.29938
rhand -6.46868 -14.7838
rfingers 7.12502
rthumb 19.3818 -43.8379
lclavicle -2.2413e-014 9.64106e-015
lhumerus -41.8139 4.53762 78.1538
lradius 61.2652
lwrist 7.4193
lhand -4.28148 11.7529
lfingers 7.12502
lthumb 21.4836 40.5816
rfemur -28.7076 2.97273 22.6894
rtibia 26.4252
rfoot -14.2131 -3.65633
rtoes -7.34423
lfemur 1.88545 3.93081 -18.9261
ltibia 18.6839
lfoot -16.5535 -2.91785
ltoes -16.2744
244
root -28.4564 17.9818 -3.87349 0.519746 77.9167 -12.2036
lowerback 17.4544 -2.26951 -4.69493
upperback 4.75521 -3.31802 3.97271
thorax -4.12334 -1.5355 7.60619
lowerneck 0.0711843 3.39608 3.45746
upperneck 3.19474 4.78514 -8.25201
head 1.31615 2.3523 -3.2028
rclavicle 6.69407e-014 -5.22307e-014
rhumerus -43.3979 13.7557 -80.7013
rradius 41.8982
rwrist 3.31691
rhand -6.36727 -14.7975
rfingers 7.12502
rthumb 19.4793 -43.8418
lclavicle 6.69407e-014 -5.22307e-014
lhumerus -42.1147 4.45348 78.4412
lradius 61.1595
lwrist 7.41104
lhand -4.13393 11.6626
lfingers 7.12502
lthumb 21.6253 40.475
rfemur -28.3462 3.01218 22.1987
rtibia 26.8231
rfoot -13.7872 -4.34454
rtoes -5.72044
lfemur 2.17507 4.04155 -19.1472
ltibia 19.0311
lfoot -16.013 -3.89164
ltoes -17.1136
245
root -28.2979 17.9639 -3.83076 2.46808 78.5906 -10.1325
lowerback 17.3823 -2.30563 -4.63426
upperback 4.7041 -3.35292 3.97212
thorax -4.13828 -1.55077 7.57427
lowerneck 0.00558332 3.23591 3.49159
upperneck 3.3491 4.59256 -8.49781
head 1.37404 2.252 -3.29635
rclavicle 2.8948e-014 -1.64743e-014
rhumerus -43.7666 13.5006 -80.589
rradius 41.7913
rwrist 3.31364
rhand -6.29455 -14.8147
rfingers 7.12502
rthumb 19.5492 -43.8519
lclavicle 2.8948e-014 -1.64743e-014
lhumerus -42.3866 4.34164 78.7346
lradius 61.0001
lwrist 7.37146
lhand -3.94729 11.5647
lfingers 7.12502
lthumb 21.8046 40.3564
rfemur -27.9537 3.05376 21.7065
rtibia 27.3078
rfoot -13.4719 -5.20733
rtoes -4.26674
lfemur 2.36269 4.18013 -19.3426
ltibia 19.5761
lfoot -15.4421 -4.93236
ltoes -17.8649
246
root -28.1385 17.9472 -3.78722 4.60653 79.3173 -7.87766
lowerback 17.3037 -2.33913 -4.52759
upperback 4.65447 -3.37561 3.97582
thorax -4.15295 -1.56002 7.51754
lowerneck -0.0415794 3.05876 3.53708
upperneck 3.46558 4.37617 -8.75727
head 1.41508 2.14086 -3.39831
rclavicle -6.31141e-015 2.62396e-014
rhumerus -44.1417 13.1772 -80.4576
rradius 41.6894
rwrist 3.28869
rhand -6.25118 -14.8415
rfingers 7.12502
rthumb 19.5909 -43.8745
lclavicle -6.31141e-015 2.62396e-014
lhumerus -42.6208 4.20943 79.0345
lradius 60.7883
lwrist 7.29676
lhand -3.71973 11.4694
lfingers 7.12502
lthumb 22.0231 40.2355
rfemur -27.5527 3.11884 21.2293
rtibia 27.8774
rfoot -13.3333 -6.27116
rtoes -3.1565
lfemur 2.39596 4.31913 -19.4938
ltibia 20.3607
lfoot -14.8235 -6.02155
ltoes -18.5228
247
root -27.9803 17.9335 -3.74248 6.86096 80.1161 -5.53876
lowerback 17.2173 -2.37566 -4.35406
upperback 4.60271 -3.38909 3.99699
thorax -4.17051 -1.56462 7.43903
lowerneck -0.0801543 2.86511 3.5963
upperneck 3.54229 4.13588 -9.02855
head 1.4401 2.01876 -3.50831
rclavicle -4.21423e-014 2.84262e-014
rhumerus -44.5077 12.7926 -80.3069
rradius 41.5884
rwrist 3.23782
rhand -6.24329 -14.8798
rfingers 7.12502
rthumb 19.5985 -43.9119
lclavicle -4.21423e-014 2.84262e-014
lhumerus -42.8121 4.07109 79.3392
lradius 60.5322
lwrist 7.18546
lhand -3.46355 11.3717
lfingers 7.12502
lthumb 22.269 40.1086
rfemur -27.1632 3.23186 20.7979
rtibia 28.5025
rfoot -13.3945 -7.53495
rtoes -2.51706
lfemur 2.19646 4.43136 -19.5662
ltibia 21.4607
lfoot -14.1149 -7.13403
ltoes -18.958
248
root -27.8226 17.9222 -3.69723 9.08019 80.9473 -3.24098
lowerback 17.1412 -2.40248 -4.09414
upperback 4.56555 -3.37258 4.03972
thorax -4.18674 -1.55453 7.32848
lowerneck -0.13115 2.65671 3.66683
upperneck 3.59222 3.87409 -9.30498
head 1.45667 1.88625 -3.62322
rclavicle 4.96962e-014 2.3059e-014
rhumerus -44.8463 12.3575 -80.1341
rradius 41.4773
rwrist 3.16594
rhand -6.25893 -14.9201
rfingers 7.12502
rthumb 19.5834 -43.9538
lclavicle 4.96962e-014 2.3059e-014
lhumerus -42.9584 3.9414 79.6468
lradius 60.2386
lwrist 7.03461
lhand -3.20086 11.2854
lfingers 7.12502
lthumb 22.5212 39.992
rfemur -26.7462 3.41653 20.4444
rtibia 29.1418
rfoot -13.7073 -8.92141
rtoes -2.07481
lfemur 1.76696 4.5359 -19.5403
ltibia 22.9375
lfoot -13.3303 -8.21489
ltoes -19.1655
249
root -27.6677 17.9134 -3.65096 11.1601 81.8497 -1.11469
lowerback 17.0808 -2.43252 -3.73384
upperback 4.52958 -3.34014 4.11726
thorax -4.21631 -1.53598 7.19596
lowerneck -0.211574 2.43693 3.74182
upperneck 3.63527 3.59586 -9.57378
head 1.47398 1.74508 -3.73702
rclavicle -5.28767e-014 4.45278e-014
rhumerus -45.1494 11.8935 -79.9422
rradius 41.3476
rwrist 3.07746
rhand -6.28349 -14.9577
rfingers 7.12502
rthumb 19.5598 -43.9938
lclavicle -5.28767e-014 4.45278e-014
lhumerus -43.0743 3.82903 79.9541
lradius 59.9224
lwrist 6.85853
lhand -2.95399 11.2211
lfingers 7.12502
lthumb 22.7581 39.8987
rfemur -26.3139 3.63836 20.2002
rtibia 29.7441
rfoot -14.2074 -10.389
rtoes -1.95168
lfemur 1.04774 4.60318 -19.3905
ltibia 24.8241
lfoot -12.4725 -9.23877
ltoes -19.0438
